<svg id="Layer_1" data-name="Layer 1" xmlns="http://www.w3.org/2000/svg" xmlns:xlink="http://www.w3.org/1999/xlink" viewBox="0 0 52.892 60"><defs><style>.cls-1{fill:url(#linear-gradient);}.cls-2{fill:none;}.cls-3{fill:url(#linear-gradient-2);}.cls-4{fill:url(#Degradado_sin_nombre_618);}.cls-5{fill:url(#linear-gradient-3);}.cls-6{fill:url(#linear-gradient-4);}.cls-7{fill:url(#linear-gradient-5);}.cls-8{fill:url(#linear-gradient-6);}.cls-9{fill:#e28228;}.cls-10{fill:#010101;}</style><linearGradient id="linear-gradient" x1="109.997" y1="294.086" x2="125.27" y2="294.086" gradientTransform="matrix(0.57, 0.822, 0.822, -0.57, -274.336, 92.127)" gradientUnits="userSpaceOnUse"><stop offset="0" stop-color="#065497"/><stop offset="0.435" stop-color="#2d70b1"/><stop offset="0.786" stop-color="#4682c2"/><stop offset="1" stop-color="#4f89c8"/></linearGradient><linearGradient id="linear-gradient-2" x1="116.831" y1="293.688" x2="120.268" y2="297.125" gradientTransform="matrix(0.57, 0.822, 0.822, -0.57, -275.94, 90.516)" xlink:href="#linear-gradient"/><linearGradient id="Degradado_sin_nombre_618" x1="98.122" y1="306.045" x2="112.893" y2="280.461" gradientTransform="matrix(0.84, -0.542, -0.542, -0.84, 95.906, 328.287)" gradientUnits="userSpaceOnUse"><stop offset="0" stop-color="#e86ea5"/><stop offset="0.074" stop-color="#e9679b"/><stop offset="0.203" stop-color="#ea547f"/><stop offset="0.368" stop-color="#ec3552"/><stop offset="0.471" stop-color="#ee1f32"/><stop offset="0.615" stop-color="#dc1e2e"/><stop offset="0.904" stop-color="#ac1d23"/><stop offset="1" stop-color="#9b1c1f"/></linearGradient><linearGradient id="linear-gradient-3" x1="98.122" y1="306.045" x2="112.893" y2="280.461" gradientTransform="matrix(0.84, -0.542, -0.542, -0.84, 95.906, 328.287)" gradientUnits="userSpaceOnUse"><stop offset="0" stop-color="#4f89c8"/><stop offset="0.105" stop-color="#4581c1"/><stop offset="0.287" stop-color="#296dae"/><stop offset="0.471" stop-color="#065497"/><stop offset="0.702" stop-color="#114585"/><stop offset="1" stop-color="#242d67"/></linearGradient><linearGradient id="linear-gradient-4" x1="148.098" y1="318.014" x2="153.636" y2="318.014" gradientTransform="matrix(0.688, -0.726, -0.726, -0.688, 157.641, 337.096)" xlink:href="#linear-gradient-3"/><linearGradient id="linear-gradient-5" x1="148.098" y1="318.014" x2="153.636" y2="318.014" gradientTransform="matrix(0.688, -0.726, -0.726, -0.688, 157.641, 337.096)" xlink:href="#linear-gradient"/><linearGradient id="linear-gradient-6" x1="246.371" y1="173.543" x2="254.634" y2="159.229" gradientTransform="matrix(-0.847, -0.766, 0.971, -1.074, 70.601, 382.34)" xlink:href="#linear-gradient-3"/></defs><title>GIAVI Logo</title><rect class="cls-1" x="31.617" y="13.783" width="5.482" height="14.787" transform="translate(13.109 55.49) rotate(-89.879)"/><rect class="cls-2" x="31.617" y="13.783" width="5.482" height="14.787" transform="translate(13.109 55.49) rotate(-89.879)"/><rect class="cls-3" x="33.228" y="12.176" width="2.268" height="14.787" transform="translate(14.72 53.891) rotate(-89.88)"/><rect class="cls-2" x="33.228" y="12.176" width="2.268" height="14.787" transform="translate(14.72 53.891) rotate(-89.88)"/><path class="cls-4" d="M15.43,17.939l-4.605,2.973,13.743,17.7a2.836,2.836,0,0,0,1.667,1.236,2.742,2.742,0,0,0,2.918-1.076L43.2,22.455a2.741,2.741,0,0,0-.66-3.82h0a2.74,2.74,0,0,0-3.819.659L27.014,32.3Z"/><path class="cls-5" d="M15.43,17.939l-4.605,2.973,13.743,17.7a2.836,2.836,0,0,0,1.667,1.236,2.742,2.742,0,0,0,2.918-1.076L43.2,22.455a2.741,2.741,0,0,0-.66-3.82h0a2.74,2.74,0,0,0-3.819.659L27.014,32.3Z"/><path class="cls-2" d="M15.43,17.939l-4.605,2.973,13.743,17.7a2.836,2.836,0,0,0,1.667,1.236,2.742,2.742,0,0,0,2.918-1.076L43.2,22.455a2.741,2.741,0,0,0-.66-3.82h0a2.74,2.74,0,0,0-3.819.659L27.014,32.3Z"/><polygon class="cls-6" points="31.325 5.778 27.554 9.757 29.89 11.893 33.661 7.914 31.325 5.778"/><polygon class="cls-7" points="29.89 11.893 27.554 9.757 33.661 7.914 29.89 11.893"/><polygon class="cls-2" points="31.325 5.778 27.554 9.757 29.89 11.893 33.661 7.914 31.325 5.778"/><line class="cls-2" x1="33.661" y1="7.914" x2="27.593" y2="9.688"/><path class="cls-8" d="M28.935,2.126h0a2.726,2.726,0,0,1,.194,3.849L15.1,21.361a2.725,2.725,0,0,1-3.849.193h0a2.726,2.726,0,0,1-.194-3.849L25.086,2.32A2.726,2.726,0,0,1,28.935,2.126Z"/><path class="cls-2" d="M28.935,2.126h0a2.726,2.726,0,0,1,.194,3.849L15.1,21.361a2.725,2.725,0,0,1-3.849.193h0a2.726,2.726,0,0,1-.194-3.849L25.086,2.32A2.726,2.726,0,0,1,28.935,2.126Z"/><path class="cls-9" d="M5.21,48.478c0,3.2,1.718,5.155,4.519,5.155,1.237,0,2.285-.464,2.285-1.014V49.835c0-1.322-.257-1.443-1.512-1.528V48h4.382v.31c-1,.085-1.2.308-1.2,1.322v3.488a8.5,8.5,0,0,1-4.313,1.2c-2.336,0-6.116-1.168-6.116-5.824a5.749,5.749,0,0,1,5.893-6.03,15.324,15.324,0,0,1,3.093.566.816.816,0,0,0,.773-.566h.378l.137,3.625h-.395c-.584-1.409-1.46-2.939-3.694-2.939C6.053,43.151,5.21,46.364,5.21,48.478Z"/><path class="cls-9" d="M16.74,44.578c0-1.271-.207-1.461-1.667-1.547v-.326h5.1v.326c-1.443.07-1.684.292-1.684,1.547v7.628c0,1.255.275,1.495,1.684,1.547v.326h-5.1v-.326c1.443-.052,1.667-.258,1.667-1.547Z"/><path class="cls-9" d="M32.616,54.079H28.235v-.326c.91-.018,1.2-.155,1.2-.584a3.392,3.392,0,0,0-.326-1.151l-.7-1.65h-4.5l-.79,2.01a1.948,1.948,0,0,0-.138.67c0,.481.344.7,1.168.7v.326h-3.4v-.326c.825-.034,1.065-.292,2.131-2.818L26.448,42.5h.343l4.279,9.759c.564,1.288.772,1.443,1.546,1.495Zm-4.451-4.416-1.992-4.725L24.2,49.663Z"/><path class="cls-9" d="M43.149,43.031c-.825.052-1.032.224-1.581,1.6l-3.815,9.64h-.258l-4.226-9.433c-.687-1.547-.979-1.771-1.82-1.8v-.326h4.569v.326c-.24.018-.429.034-.5.034-.55.036-.79.207-.79.534a6.153,6.153,0,0,0,.7,1.907l2.6,5.807,2.525-6.3a3.956,3.956,0,0,0,.326-1.255c0-.481-.308-.67-1.254-.722v-.326h3.523Z"/><path class="cls-9" d="M45.21,44.578c0-1.271-.206-1.461-1.666-1.547v-.326h5.1v.326c-1.444.07-1.684.292-1.684,1.547v7.628c0,1.255.275,1.495,1.684,1.547v.326h-5.1v-.326c1.444-.052,1.666-.258,1.666-1.547Z"/><path class="cls-10" d="M5.991,56.22c-.279,0-.336.047-.4.318h-.06l.015-.423h1.4l.015.423h-.06c-.057-.273-.112-.318-.4-.318H6.378v1.27c0,.182.035.214.239.225v.047H5.891v-.047c.206-.013.234-.04.234-.252V56.22Z"/><path class="cls-10" d="M8.734,56.869v-.482c0-.18-.027-.207-.219-.225v-.047h.692v.047c-.192.018-.219.045-.219.225v1.1c0,.177.032.209.219.225v.047H8.515v-.047c.194-.013.219-.043.219-.252v-.484H7.981v.511c0,.177.032.209.218.225v.047H7.508v-.047c.194-.013.219-.043.219-.252V56.387c0-.18-.028-.207-.219-.225v-.047H8.2v.047c-.191.018-.218.045-.218.225v.482Z"/><path class="cls-10" d="M10.516,57.67h.067c.356,0,.463-.06.587-.328h.07l-.112.42H9.784v-.047c.182-.013.217-.05.217-.225v-1.1c0-.175-.032-.209-.217-.225v-.047h1.321l.008.356h-.062c-.043-.224-.1-.261-.378-.261h-.336c-.068,0-.082.015-.082.084v.553h.382c.232,0,.247-.073.274-.237h.058v.578h-.058c-.032-.208-.069-.24-.274-.24h-.382v.615C10.255,57.657,10.272,57.67,10.516,57.67Z"/><path class="cls-10" d="M13.39,56.22c-.279,0-.336.047-.4.318h-.059l.014-.423h1.4l.015.423h-.06c-.057-.273-.111-.318-.395-.318h-.134v1.27c0,.182.035.214.238.225v.047H13.29v-.047c.207-.013.234-.04.234-.252V56.22Z"/><path class="cls-10" d="M16.417,57.762h-.635v-.047c.132,0,.175-.023.175-.085a.493.493,0,0,0-.048-.167l-.1-.238h-.651l-.115.291a.287.287,0,0,0-.019.1c0,.07.049.1.169.1v.047H14.7v-.047c.12-.005.154-.043.309-.408l.517-1.222h.05l.619,1.413c.082.187.112.209.224.217Zm-.644-.64-.289-.684-.286.684Z"/><path class="cls-10" d="M17.008,56.506a.42.42,0,0,1,.43-.426,1.971,1.971,0,0,1,.373.085c.042,0,.07-.027.079-.085h.053l.054.53h-.062c-.085-.308-.274-.427-.455-.427a.234.234,0,0,0-.259.231c0,.134.105.243.366.388.328.177.465.338.465.542a.475.475,0,0,1-.507.453,2.214,2.214,0,0,1-.411-.085.077.077,0,0,0-.069.082H17.01l-.075-.527h.057c.125.3.282.44.5.44a.28.28,0,0,0,.306-.281C17.8,57,17.008,57.016,17.008,56.506Z"/><path class="cls-10" d="M19.11,56.22c-.279,0-.336.047-.4.318h-.059l.014-.423h1.4l.015.423h-.06c-.057-.273-.112-.318-.395-.318H19.5v1.27c0,.182.035.214.239.225v.047H19.01v-.047c.207-.013.234-.04.234-.252V56.22Z"/><path class="cls-10" d="M21.341,57.67h.067c.356,0,.463-.06.587-.328h.07l-.112.42H20.61v-.047c.181-.013.216-.05.216-.225v-1.1c0-.175-.032-.209-.216-.225v-.047h1.32l.008.356h-.062c-.043-.224-.1-.261-.378-.261h-.336c-.067,0-.082.015-.082.084v.553h.383c.231,0,.246-.073.274-.237h.057v.578h-.057c-.033-.208-.07-.24-.274-.24H21.08v.615C21.08,57.657,21.1,57.67,21.341,57.67Z"/><path class="cls-10" d="M25.466,56.162c-.127.011-.2.06-.343.284l-.368.562v.482c0,.19.034.22.256.225v.047H24.25v-.047c.226-.011.251-.035.251-.252V57.03l-.326-.477c-.241-.356-.283-.386-.4-.391v-.047h.7v.047c-.1.008-.177.022-.177.075a.221.221,0,0,0,.042.11l.368.551.356-.561a.2.2,0,0,0,.035-.093c0-.059-.042-.079-.172-.082v-.047h.545Z"/><path class="cls-10" d="M26,56.938a.814.814,0,1,1,.8.859A.806.806,0,0,1,26,56.938Zm.814-.768c-.428,0-.53.465-.53.773s.105.764.525.764.534-.463.534-.761C27.339,56.326,27.029,56.17,26.81,56.17Z"/><path class="cls-10" d="M29.1,57.688a.465.465,0,0,0,.413-.2.707.707,0,0,0,.057-.338V56.48c0-.248-.04-.3-.234-.318v-.047h.577v.047c-.2.026-.234.066-.234.318v.65c0,.355-.1.667-.637.667-.422,0-.624-.2-.624-.635v-.775c0-.182-.027-.209-.223-.225v-.047h.7v.047c-.2.018-.226.045-.226.225v.8C28.668,57.485,28.752,57.688,29.1,57.688Z"/><path class="cls-10" d="M32.443,57.762h-.831v-.047c.207-.008.239-.04.239-.225v-1.1c0-.185-.03-.212-.239-.225v-.047h.7c.431,0,.652.145.652.423a.369.369,0,0,1-.341.358c.1.025.425.094.425.418C33.044,57.493,32.925,57.762,32.443,57.762Zm-.1-.91c.233,0,.365-.11.365-.3,0-.222-.151-.341-.437-.341h-.11c-.038,0-.054.022-.054.075v.57Zm.417.464c0-.352-.321-.365-.653-.365v.616c0,.08.034.1.156.1C32.532,57.67,32.758,57.61,32.758,57.316Z"/><path class="cls-10" d="M34.338,57.67h.068c.355,0,.462-.06.586-.328h.07l-.112.42H33.608v-.047c.18-.013.216-.05.216-.225v-1.1c0-.175-.033-.209-.216-.225v-.047h1.32l.008.356h-.063c-.042-.224-.1-.261-.378-.261h-.336c-.067,0-.082.015-.082.084v.553h.383c.232,0,.246-.073.274-.237h.057v.578h-.057c-.033-.208-.07-.24-.274-.24h-.383v.615C34.077,57.657,34.1,57.67,34.338,57.67Z"/><path class="cls-10" d="M36.946,57.329h.062l-.119.433H35.551v-.047c.181-.013.216-.05.216-.225v-1.1c0-.175-.032-.209-.216-.225v-.047h.7v.047c-.2.013-.231.048-.231.225v1.176c0,.086.032.1.214.1H36.4C36.836,57.665,36.9,57.443,36.946,57.329Z"/><path class="cls-10" d="M37.749,56.387c0-.185-.03-.212-.241-.225v-.047h.738v.047c-.209.011-.243.043-.243.225v1.1c0,.182.039.217.243.225v.047h-.738v-.047c.209-.008.241-.038.241-.225Z"/><path class="cls-10" d="M39.55,57.67h.067c.356,0,.463-.06.587-.328h.07l-.112.42H38.82v-.047c.18-.013.215-.05.215-.225v-1.1c0-.175-.032-.209-.215-.225v-.047h1.32l.008.356h-.063c-.042-.224-.1-.261-.378-.261h-.336c-.067,0-.082.015-.082.084v.553h.383c.232,0,.246-.073.274-.237H40v.578h-.057c-.033-.208-.07-.24-.274-.24h-.383v.615C39.289,57.657,39.307,57.67,39.55,57.67Z"/><path class="cls-10" d="M42.491,56.162c-.12.008-.15.032-.229.232l-.553,1.4h-.037l-.611-1.365c-.1-.224-.142-.257-.264-.262v-.047h.661v.047l-.072.005c-.079.006-.114.03-.114.077a.891.891,0,0,0,.1.277l.375.84.367-.913a.578.578,0,0,0,.046-.181c0-.07-.045-.1-.181-.105v-.047h.51Z"/><path class="cls-10" d="M43.762,57.67h.067c.356,0,.463-.06.587-.328h.07l-.112.42H43.032v-.047c.18-.013.215-.05.215-.225v-1.1c0-.175-.032-.209-.215-.225v-.047h1.32l.008.356H44.3c-.042-.224-.1-.261-.378-.261h-.336c-.067,0-.082.015-.082.084v.553h.383c.232,0,.246-.073.273-.237h.058v.578h-.058c-.032-.208-.069-.24-.273-.24H43.5v.615C43.5,57.657,43.519,57.67,43.762,57.67Z"/><path class="cls-10" d="M46.425,56.387c0-.185-.03-.212-.241-.225v-.047h.738v.047c-.209.011-.243.043-.243.225v1.1c0,.182.039.217.243.225v.047h-.738v-.047c.209-.008.241-.038.241-.225Z"/><path class="cls-10" d="M48.988,56.48v1.309h-.043l-1.1-1.368V57.4c0,.251.042.308.233.319v.047H47.5v-.047c.206-.016.242-.063.242-.319V56.3c-.1-.116-.135-.137-.242-.137v-.047h.425l.958,1.2V56.48c0-.258-.048-.3-.239-.318v-.047h.585v.047C49.072,56.178,48.988,56.189,48.988,56.48Z"/></svg>